<svg xmlns="http://www.w3.org/2000/svg" width="284.08px" height="264.104px" viewBox="0 0 284.08 264.104"><rect fill="#050703" width="284.08" height="264.104"/><path fill="#FABB00" d="M147.175 202.313c0-0.951 0-8.592 0-8.592s-2.617-1.77-7.784-1.697c-5.401 0.074-10.333 4.16-10.333 10.191v4.906h-3.355v6.789h3.355v7.498 12.848c0 0.34 0 0.527 0 0.527v1.721c0 3.262-2.164 4.201-2.164 4.201h2.164 9.426 2.162c0 0-2.162-0.939-2.162-4.201 0-0.281 0-0.93 0-1.836v-0.602 -12.77 -7.686h4.832v-6.529h-4.832v-4.906C138.485 199.266 144.345 197.559 147.175 202.313zM119.279 177.798c0 0-1.928 4.498-8.418 3.887 -5.21-0.488-8.688-7.17-8.588-11.662 0.103-4.644 2.616-8.745 6.709-9.094 6.064-0.521 7.246 6.081 7.246 6.081l5.232-6.872c0 0-4.492-6.53-12.947-6.608 -8.352-0.036-15.801 6.684-15.567 16.454 0.337 13.364 10.334 19.212 19.458 18.837 2.65-0.113 6.875-0.641 6.875-0.906V177.798M172.146 209.78c0 0-6.271-4.113-12.914-4.113 -6.842 0-13.08 4-13.115 10.605 0 5.398 4.061 8.076 9.225 9.773 4.092 1.322 7.379 2.076 7.379 4.795 0 1.924-2.553 3.295-4.963 3.359 -8.256 0.221-8.76-6.578-8.76-6.578l-5.094 8.084c0 0 6.205 5.965 13.785 5.512 6.273-0.377 14.254-2.039 14.492-11.51 0.168-6.91-3.893-8.756-8.824-10.758 -3.42-1.393-7.715-1.924-7.715-4.186 0-1.512 1.99-1.934 3.523-1.967 7.576-0.148 8.178 5.547 8.178 5.547L172.146 209.78M93.453 213.42c-4.798 0-6.1 4.947-6.272 9.588 -0.188 4.969 1.374 10.564 6.406 10.527 5.3-0.037 6.284-5.021 6.372-9.734C100.054 218.848 98.316 213.42 93.453 213.42M110.057 222.969c0 9.887-5.872 17.475-15.933 18.229 -9.829 0.719-17.744-7.549-17.409-17.547 0.368-11.398 7.648-17.775 16.604-18.045C102.476 205.309 110.057 213.045 110.057 222.969zM187.729 179.69c-0.172 4.52 4.686 4.117 5.248 4.117 8.535 0 8.301 7.096 10.645 7.764 7.262 2.074 4.922 9.77 11.041 9.639 4.387-0.104 9.373-3.75 10.477-6.664 1.74-4.551 1.037-4.582 2.143-8.227 1.607-5.191 3.41-5.791 3.279-10.811 -0.27-8.768-6.326-7.326-9.639-8.936 -2.578-1.271-3.814 0.703-5.855 0.672 -1.137-0.035-2.443-0.771-3.584-0.836 -1.436-0.07-2.207 0.498-3.344 0.164 -1.57-0.467-3.482-1.871-5.455-1.672C194.556 165.704 188.13 168.817 187.729 179.69M195.155 154.36c0.035 4.754 2.477 5.723 5.625 7.029 1.738 0.732 7.127-3.715 8.197-4.953 1.172-1.34 4.449-5.424 4.516-9.707 0.068-3.678-3.109-4.385-6.523-4.514C199.442 141.879 195.091 147.833 195.155 154.36M215.569 136.958c-0.502-0.668-4.754 1.406-4.252 2.746 0.234 0.668 0.625 1.322 1.406 1.506 1.061 0.246 1.738-0.607 2.344-1.506C215.673 138.803 216.169 137.762 215.569 136.958M235.312 133.112c-3.281 0.166-10.104 1.74-13.721 6.088 -1.973 2.41-4.381 3.18-4.516 6.963 -0.234 6.189 5.488 9.738 7.963 9.438 3.58-0.471 6.561-2.578 8.766-4.352 2.244-1.84 4.285-3.848 5.291-6.592 0.537-1.473 1.84-2.441 2.072-4.35C241.47 137.663 238.425 132.944 235.312 133.112M243.61 128.592c-1.438-0.266-3.178 1.408-3.613 3.248 -0.232 1.07 1.27 2.51 2.344 2.344 1.639-0.27 1.873-2.076 2.174-3.182 0.268-0.936 0.1-1.338 0.436-2.004C245.116 128.661 244.114 128.661 243.61 128.592M259.505 142.215c-2.207 0-5.289 1.104-5.521 3.277 -0.064 0.67 0.904 1.271 1.238 1.672 0.672 0.871 1.207 1.104 1.676 1.006 1.406-0.369 2.506-1.709 3.176-2.844 0.404-0.707 0.506-1.006 0.604-1.842C260.745 142.817 260.507 142.215 259.505 142.215M255.726 165.975c-2.078 0.266-4.92 1-5.088 3.51 -0.064 1.24 1.908 2.342 2.578 2.107 2.275-0.836 2.553-2.295 3.111-4.279 0.123-0.455 0.553-0.836 0.232-1.172C256.333 165.897 255.991 165.938 255.726 165.975M250.302 147.065c-2.578-0.166-18 6.525-17.568 14.824 0.27 5.553 6.459 6.059 7.195 5.922 4.385-0.936 8.502-3.412 10.709-5.855 2.512-2.742 4.385-3.479 5.088-8.199 0.131-0.934-0.172-2.744-0.504-3.512C254.55 148.838 252.812 147.233 250.302 147.065M248.026 170.254c-4.248 0.502-8.867 1.943-12.045 6.094 -2.375 3.107-2.877 5.785-3.248 9.699 -0.199 2.01 0.639 3.215 1.51 4.119 1.068 1.068 2.307 1.672 3.744 1.572 3.852-0.338 8.102-2.645 11.146-6.592 2.141-2.781 3.344-4.953 3.578-8.467C252.913 173.5 251.108 169.922 248.026 170.254M92.546 187.813c0 0-2.18-0.617-2.18-3.469v-20.875c0-7.209-8.018-10.152-14.189-9.928 -4.764 0.193-12.313 2.078-12.313 2.078v8.982c1.676-1.844 4.51-3.164 10.305-3.205 0.033 0 0.063-0.006 0.096-0.006 0.024 0 0.043 0.004 0.067 0.004 0.04 0 0.077-0.004 0.117-0.004l-0.004 0.006c6.872 0.023 6.191 3.279 6.191 3.279s-19.085-0.377-19.456 12.646c-0.268 8.867 6.943 12.074 11.741 11.695 4.932-0.377 8.052-3.057 8.052-3.057v1.852H92.546zM80.906 176.186c0 1.137-1.777 5.438-6.372 5.248 -1.979-0.074-3.457-1.697-3.423-3.926 0.135-5.209 9.795-6.303 9.795-6.303V176.186zM224.181 240.709c-0.041-0.01-2.346-0.521-2.346-4.141 0-0.432 0-1.092 0-1.908 0-1.406 0-15.605 0-21.316 0-0.76 0-1.375 0-1.781 0-3.652 0-4.27 0-4.27h-9.492 -2.35c0 0 2.35 0.617 2.35 4.27 0 0.43 0 1.09 0 1.906 0 6.102 0 21.316 0 21.316 0 0.758 0 1.373 0 1.783 0 3.652-2.35 4.141-2.35 4.141h2.35 9.492H224.181h0.004H224.181zM259.425 240.709c-0.041-0.01-2.346-0.521-2.346-4.141 0-0.301 0-0.719 0-1.215v-1.174 -6.01 -3.736 -7.691c0-5.018-4.697-10.527-10.533-10.678 -4.662-0.113-8.822 2.754-8.822 2.754v-1.4l0 0h-9.492 -2.348c0.014 0.006 2.348 0.502 2.348 4.145 0 0.424 0 1.074 0 1.875 0 0.01 0 0.02 0 0.031 0 6.102 0 21.316 0 21.316 0 0.01 0 0.016 0 0.023 0 0.748 0 1.355 0 1.76 0 3.641-2.334 4.137-2.348 4.141h2.348 9.492l0 0v-4.141c0-0.432 0-1.092 0-1.908 0-0.018 0-0.045 0-0.064v-3.428 -12.084c0-1.813 2.08-5.096 5.801-5.096 4.061-0.039 4.096 5.701 4.096 5.701s0.004 2.318 0.01 4.744v1.475 11.199 3.602h0.023 9.426l0 0h2.412 0.004H259.425zM122.248 201.209v-1.98 -1.721 -4.316h-9.426 -2.162c0 0 2.162 1.055 2.162 4.316 0 0.279 0 0.928 0 1.832 0 7.734 0 35.443 0 35.443v1.721c0 3.262-2.162 4.201-2.162 4.201h2.162 9.426 2.164c0 0-2.164-0.939-2.164-4.201 0-0.281 0-0.93 0-1.836V201.209zM58.23 140.358H46.464c0 0 1.367 1.322 1.367 3.652 0 2.553 0 29.982 0 29.982 0 2.891-1.445 5.861-5.102 6.289 -6.68 0.781-10.234-5.156-10.784-9.703l-6.755 5.084c0 0 4.359 13.283 17.275 13.471 8.654 0.152 15.764-6.301 15.764-14.002 0 0 0-18.453 0-26.805 0-1.92 0-3.307 0-3.811V140.358zM195.813 219.196l6.715-6.047h0.002l1.166-1.051c0 0 0.332-0.283 2.346-2.111 1.762-1.598 3.168-2.352 3.953-2.691h-12.725l-4.479 4.354 -2.158 2.098 -6.461 6.281v-19.992 -0.652 -2.629 -3.563h-3.623 -8.053c0 0 2.184 1.037 2.184 3.563 0 1.506 0 9.162 0 17.197 0 10.027 0 20.645 0 20.645v2.627c0 2.525-2.184 3.486-2.184 3.486h2.184 3.621 5.871v-3.486c0-0.416 0-1.311 0-2.551v-0.076 -1.623 -3.285l3.926-4.074c0 0 5.232 8.674 6.982 11.682 1.563 2.682-0.963 3.414-0.963 3.414h14.348l-3.664-6.037L195.813 219.196zM151.325 160.241l1.164-1.049c0 0 0.332-0.285 2.348-2.111 2.738-2.484 4.639-2.943 4.639-2.943h-4.639 -8.512l-4.737 4.605 -2.158 2.098 -6.463 6.281v-19.924 -0.723 -2.629 -3.484h-3.623 -8.053c0 0 2.184 0.959 2.184 3.484 0 1.506 0 9.162 0 17.195 0 10.027 0 20.648 0 20.648v2.627c0 2.523-2.184 3.486-2.184 3.486h2.184 3.621 5.871v-3.486c0-0.418 0-1.313 0-2.553v-0.074 -4.91l3.926-4.072c0 0 5.233 8.674 6.983 11.68 1.563 2.684-0.963 3.416-0.963 3.416h14.348l-3.664-6.039 -8.988-15.475 6.715-6.049H151.325zM72.84 193.192l-0.968 3.479c-0.001 0.004-0.001 0.01-0.002 0.018 -0.1 0.352-0.36 1.285-0.725 2.592l-1.576 5.662 0 0c-2.105 7.566-4.865 17.498-4.865 17.498s-6.115-24.463-6.564-26.338 2.402-2.91 2.402-2.91H44.45c0 0 1.875 0.813 2.369 2.48 0.494 1.666 2.522 8.428 2.522 8.428l-4.596 18.756c0 0-4.354-16.613-6.185-23.645l-1.572-6.02H23.394c0 0 2.648 0.729 3.313 3.092s12.439 44.426 12.439 44.426h9.357l5.063-20.758 5.703 20.758h9.058c0 0 11.278-41.654 11.929-44.127s2.813-3.391 2.813-3.391H72.84z"/></svg>